<?xml version="1.0" encoding="UTF-8"?>
<svg width="450px" height="450px" viewBox="0 0 450 450" version="1.1" xmlns="http://www.w3.org/2000/svg" xmlns:xlink="http://www.w3.org/1999/xlink">
    <!-- Generator: Sketch 62 (91390) - https://sketch.com -->
    <title>Salesforce SVG Icon</title>
    <desc>Created with Sketch.</desc>
    <g id="Salesforce-SVG-Icon" stroke="none" stroke-width="1" fill="none" fill-rule="evenodd">
        <g id="pin-(1)" transform="translate(39.000000, 22.000000)" fill="#000000" fill-rule="nonzero">
            <path d="M371.541329,382.417109 L328.063259,280.917109 C325.40483,274.697063 319.286639,270.666402 312.524846,270.666402 L238.362294,270.666402 L291.101271,174.634715 C300.373275,157.453461 305.27718,138.017797 305.27718,118.416402 C305.27718,53.1209766 252.180734,0 186.913694,0 C121.646653,0 68.5502071,53.1209766 68.5502071,118.416402 C68.5502071,138.017797 73.454905,157.453461 82.7594055,174.683879 L135.468263,270.666402 L61.302541,270.666402 C54.5407476,270.666402 48.422557,274.697063 45.7641283,280.917109 L2.28605795,382.417109 C0.0405813507,387.645945 0.5771813,393.651098 3.70642296,398.392258 C6.83566461,403.142141 12.1445959,406 17.8252633,406 L356.004502,406 C361.685169,406 366.9941,403.142141 370.123342,398.392258 C373.250998,393.651098 373.787598,387.645945 371.541329,382.417109 Z M119.277529,118.416402 C119.277529,81.1056367 149.619601,50.75 186.913694,50.75 C224.207786,50.75 254.549858,81.1056367 254.549858,118.416402 C254.549858,155.727168 224.207786,186.082805 186.913694,186.082805 C149.619601,186.082805 119.277529,155.727168 119.277529,118.416402 Z M43.468717,372.166402 L72.4482848,304.5 L154.046352,304.5 L179.506712,350.86409 C180.984938,353.573664 183.824875,355.25 186.912901,355.25 C190.000927,355.25 192.840864,353.572871 194.31909,350.86409 L219.781035,304.5 L301.37831,304.5 L330.35867,372.166402 L43.468717,372.166402 L43.468717,372.166402 Z" id="Shape"></path>
        </g>
    </g>
</svg>